<svg width="122" height="51" viewBox="0 0 122 51" fill="none" xmlns="http://www.w3.org/2000/svg">
<path d="M4.65881 33.1982L38.6372 5.45874L47.9546 40.2321L4.65881 33.1982Z" fill="#387AFF"/>
<path d="M38.4659 23.9313C38.1802 22.8651 38.8139 21.7675 39.8801 21.4818L118.12 0.517506C119.186 0.231814 120.284 0.865502 120.57 1.93172C120.855 2.99794 120.222 4.09552 119.155 4.38121L40.9154 25.3455C39.8492 25.6312 38.7516 24.9975 38.4659 23.9313Z" fill="#387AFF" fill-opacity="0.2"/>
<g filter="url(#filter0_d_65_612)">
<path d="M70.6149 17.459C70.6149 13.0407 67.0331 9.45898 62.6149 9.45898C58.1966 9.45898 54.6149 13.0407 54.6149 17.459C54.6149 21.8773 58.1966 25.459 62.6149 25.459C67.0331 25.459 70.6149 21.8773 70.6149 17.459Z" fill="white"/>
<path d="M68.6149 17.459C68.6149 14.1453 65.9286 11.459 62.6149 11.459C59.3012 11.459 56.6149 14.1453 56.6149 17.459C56.6149 20.7727 59.3012 23.459 62.6149 23.459C65.9286 23.459 68.6149 20.7727 68.6149 17.459Z" stroke="#387AFF" stroke-width="4"/>
</g>
<defs>
<filter id="filter0_d_65_612" x="52.6149" y="8.45898" width="20" height="20" filterUnits="userSpaceOnUse" color-interpolation-filters="sRGB">
<feFlood flood-opacity="0" result="BackgroundImageFix"/>
<feColorMatrix in="SourceAlpha" type="matrix" values="0 0 0 0 0 0 0 0 0 0 0 0 0 0 0 0 0 0 127 0" result="hardAlpha"/>
<feOffset dy="1"/>
<feGaussianBlur stdDeviation="1"/>
<feComposite in2="hardAlpha" operator="out"/>
<feColorMatrix type="matrix" values="0 0 0 0 0 0 0 0 0 0 0 0 0 0 0 0 0 0 0.05 0"/>
<feBlend mode="normal" in2="BackgroundImageFix" result="effect1_dropShadow_65_612"/>
<feBlend mode="normal" in="SourceGraphic" in2="effect1_dropShadow_65_612" result="shape"/>
</filter>
</defs>
</svg>
